<mxfile host="app.diagrams.net" modified="2024-07-03T11:23:55.155Z" agent="Mozilla/5.0 (Windows NT 10.0; Win64; x64; rv:127.0) Gecko/20100101 Firefox/127.0" etag="_XPG3yHglvR3ympJ6QWz" version="24.6.3" type="github">
  <diagram name="Page-1" id="6h9kg71L6cdeFwgVvpZa">
    <mxGraphModel dx="833" dy="1704" grid="1" gridSize="10" guides="1" tooltips="1" connect="1" arrows="1" fold="1" page="1" pageScale="1" pageWidth="827" pageHeight="1169" math="0" shadow="0">
      <root>
        <mxCell id="0" />
        <mxCell id="1" parent="0" />
        <mxCell id="9rDzmyzkwgNCb5XiCF4X-24" value="" style="rounded=1;whiteSpace=wrap;html=1;" vertex="1" parent="1">
          <mxGeometry x="402" y="240" width="396" height="460" as="geometry" />
        </mxCell>
        <mxCell id="9rDzmyzkwgNCb5XiCF4X-30" value="&lt;div&gt;Signal Operation&lt;/div&gt;&lt;div&gt;&lt;br&gt;&lt;/div&gt;&lt;div&gt;&lt;br&gt;&lt;/div&gt;&lt;div&gt;&lt;br&gt;&lt;/div&gt;&lt;div&gt;&lt;br&gt;&lt;/div&gt;&lt;div&gt;&lt;br&gt;&lt;/div&gt;&lt;div&gt;&lt;br&gt;&lt;/div&gt;&lt;div&gt;&lt;br&gt;&lt;/div&gt;&lt;div&gt;&lt;br&gt;&lt;/div&gt;&lt;div&gt;&lt;br&gt;&lt;/div&gt;" style="rounded=1;whiteSpace=wrap;html=1;" vertex="1" parent="1">
          <mxGeometry x="547" y="530" width="100" height="150" as="geometry" />
        </mxCell>
        <mxCell id="9rDzmyzkwgNCb5XiCF4X-1" value="" style="rounded=1;whiteSpace=wrap;html=1;" vertex="1" parent="1">
          <mxGeometry x="10" y="310" width="380" height="270" as="geometry" />
        </mxCell>
        <mxCell id="9rDzmyzkwgNCb5XiCF4X-2" value="&lt;div&gt;Electric Structure of Rolling Stock&lt;/div&gt;&lt;div&gt;(Abstracted)&lt;br&gt;&lt;/div&gt;" style="text;html=1;align=center;verticalAlign=middle;whiteSpace=wrap;rounded=0;fontSize=16;" vertex="1" parent="1">
          <mxGeometry x="83" y="270" width="250" height="30" as="geometry" />
        </mxCell>
        <mxCell id="9rDzmyzkwgNCb5XiCF4X-6" value="" style="edgeStyle=none;curved=1;rounded=0;orthogonalLoop=1;jettySize=auto;html=1;fontSize=12;startSize=8;endSize=8;" edge="1" parent="1" source="9rDzmyzkwgNCb5XiCF4X-4" target="9rDzmyzkwgNCb5XiCF4X-5">
          <mxGeometry relative="1" as="geometry" />
        </mxCell>
        <mxCell id="9rDzmyzkwgNCb5XiCF4X-4" value="Battery" style="rounded=1;whiteSpace=wrap;html=1;" vertex="1" parent="1">
          <mxGeometry x="148" y="330" width="120" height="30" as="geometry" />
        </mxCell>
        <mxCell id="9rDzmyzkwgNCb5XiCF4X-8" value="" style="edgeStyle=none;curved=1;rounded=0;orthogonalLoop=1;jettySize=auto;html=1;fontSize=12;startSize=8;endSize=8;" edge="1" parent="1" source="9rDzmyzkwgNCb5XiCF4X-5" target="9rDzmyzkwgNCb5XiCF4X-7">
          <mxGeometry relative="1" as="geometry" />
        </mxCell>
        <mxCell id="9rDzmyzkwgNCb5XiCF4X-5" value="Driver Commands" style="whiteSpace=wrap;html=1;rounded=1;" vertex="1" parent="1">
          <mxGeometry x="148" y="380" width="120" height="30" as="geometry" />
        </mxCell>
        <mxCell id="9rDzmyzkwgNCb5XiCF4X-10" value="" style="edgeStyle=none;curved=1;rounded=0;orthogonalLoop=1;jettySize=auto;html=1;fontSize=12;startSize=8;endSize=8;entryX=0.5;entryY=0;entryDx=0;entryDy=0;exitX=0.75;exitY=1;exitDx=0;exitDy=0;" edge="1" parent="1" source="9rDzmyzkwgNCb5XiCF4X-7" target="9rDzmyzkwgNCb5XiCF4X-9">
          <mxGeometry relative="1" as="geometry" />
        </mxCell>
        <mxCell id="9rDzmyzkwgNCb5XiCF4X-14" value="" style="edgeStyle=none;curved=1;rounded=0;orthogonalLoop=1;jettySize=auto;html=1;fontSize=12;startSize=8;endSize=8;" edge="1" parent="1" source="9rDzmyzkwgNCb5XiCF4X-7" target="9rDzmyzkwgNCb5XiCF4X-13">
          <mxGeometry relative="1" as="geometry" />
        </mxCell>
        <mxCell id="9rDzmyzkwgNCb5XiCF4X-17" value="" style="edgeStyle=none;curved=1;rounded=0;orthogonalLoop=1;jettySize=auto;html=1;fontSize=12;startSize=8;endSize=8;" edge="1" parent="1" source="9rDzmyzkwgNCb5XiCF4X-7" target="9rDzmyzkwgNCb5XiCF4X-16">
          <mxGeometry relative="1" as="geometry" />
        </mxCell>
        <mxCell id="9rDzmyzkwgNCb5XiCF4X-7" value="Signalling Equiptment" style="whiteSpace=wrap;html=1;rounded=1;" vertex="1" parent="1">
          <mxGeometry x="136" y="440" width="140" height="30" as="geometry" />
        </mxCell>
        <mxCell id="9rDzmyzkwgNCb5XiCF4X-22" style="edgeStyle=none;curved=1;rounded=0;orthogonalLoop=1;jettySize=auto;html=1;entryX=0.5;entryY=0;entryDx=0;entryDy=0;fontSize=12;startSize=8;endSize=8;" edge="1" parent="1" source="9rDzmyzkwgNCb5XiCF4X-9" target="9rDzmyzkwgNCb5XiCF4X-19">
          <mxGeometry relative="1" as="geometry" />
        </mxCell>
        <mxCell id="9rDzmyzkwgNCb5XiCF4X-9" value="Station Equiptment" style="whiteSpace=wrap;html=1;rounded=1;" vertex="1" parent="1">
          <mxGeometry x="266" y="500" width="120" height="20" as="geometry" />
        </mxCell>
        <mxCell id="9rDzmyzkwgNCb5XiCF4X-12" value="" style="endArrow=classic;html=1;rounded=0;fontSize=12;startSize=8;endSize=8;curved=1;exitX=0.5;exitY=0;exitDx=0;exitDy=0;entryX=0.75;entryY=1;entryDx=0;entryDy=0;" edge="1" parent="1" source="9rDzmyzkwgNCb5XiCF4X-9" target="9rDzmyzkwgNCb5XiCF4X-7">
          <mxGeometry width="50" height="50" relative="1" as="geometry">
            <mxPoint x="66" y="600" as="sourcePoint" />
            <mxPoint x="116" y="550" as="targetPoint" />
          </mxGeometry>
        </mxCell>
        <mxCell id="9rDzmyzkwgNCb5XiCF4X-15" style="edgeStyle=none;curved=1;rounded=0;orthogonalLoop=1;jettySize=auto;html=1;fontSize=12;startSize=8;endSize=8;" edge="1" parent="1" source="9rDzmyzkwgNCb5XiCF4X-13">
          <mxGeometry relative="1" as="geometry">
            <mxPoint x="206" y="470.0000000000001" as="targetPoint" />
          </mxGeometry>
        </mxCell>
        <mxCell id="9rDzmyzkwgNCb5XiCF4X-20" value="" style="edgeStyle=none;curved=1;rounded=0;orthogonalLoop=1;jettySize=auto;html=1;fontSize=12;startSize=8;endSize=8;" edge="1" parent="1" source="9rDzmyzkwgNCb5XiCF4X-13" target="9rDzmyzkwgNCb5XiCF4X-19">
          <mxGeometry relative="1" as="geometry" />
        </mxCell>
        <mxCell id="9rDzmyzkwgNCb5XiCF4X-13" value="Vendor Equiptment" style="whiteSpace=wrap;html=1;rounded=1;" vertex="1" parent="1">
          <mxGeometry x="146" y="500" width="120" height="20" as="geometry" />
        </mxCell>
        <mxCell id="9rDzmyzkwgNCb5XiCF4X-21" style="edgeStyle=none;curved=1;rounded=0;orthogonalLoop=1;jettySize=auto;html=1;entryX=0.5;entryY=0;entryDx=0;entryDy=0;fontSize=12;startSize=8;endSize=8;" edge="1" parent="1" source="9rDzmyzkwgNCb5XiCF4X-16" target="9rDzmyzkwgNCb5XiCF4X-19">
          <mxGeometry relative="1" as="geometry" />
        </mxCell>
        <mxCell id="9rDzmyzkwgNCb5XiCF4X-16" value="Level Crossing" style="whiteSpace=wrap;html=1;rounded=1;" vertex="1" parent="1">
          <mxGeometry x="26" y="500" width="120" height="20" as="geometry" />
        </mxCell>
        <mxCell id="9rDzmyzkwgNCb5XiCF4X-18" style="edgeStyle=none;curved=1;rounded=0;orthogonalLoop=1;jettySize=auto;html=1;entryX=0.283;entryY=0.938;entryDx=0;entryDy=0;entryPerimeter=0;fontSize=12;startSize=8;endSize=8;" edge="1" parent="1" source="9rDzmyzkwgNCb5XiCF4X-16" target="9rDzmyzkwgNCb5XiCF4X-7">
          <mxGeometry relative="1" as="geometry" />
        </mxCell>
        <mxCell id="9rDzmyzkwgNCb5XiCF4X-36" style="edgeStyle=none;curved=1;rounded=0;orthogonalLoop=1;jettySize=auto;html=1;entryX=0;entryY=1;entryDx=0;entryDy=0;fontSize=12;startSize=8;endSize=8;" edge="1" parent="1" source="9rDzmyzkwgNCb5XiCF4X-19" target="9rDzmyzkwgNCb5XiCF4X-34">
          <mxGeometry relative="1" as="geometry">
            <Array as="points">
              <mxPoint x="446" y="590" />
            </Array>
          </mxGeometry>
        </mxCell>
        <mxCell id="9rDzmyzkwgNCb5XiCF4X-19" value="Track" style="whiteSpace=wrap;html=1;rounded=1;" vertex="1" parent="1">
          <mxGeometry x="146" y="550" width="120" height="20" as="geometry" />
        </mxCell>
        <mxCell id="9rDzmyzkwgNCb5XiCF4X-23" value="Communication Structure of Rolling Stock" style="text;html=1;align=center;verticalAlign=middle;whiteSpace=wrap;rounded=0;fontSize=16;" vertex="1" parent="1">
          <mxGeometry x="487" y="180" width="220" height="30" as="geometry" />
        </mxCell>
        <mxCell id="9rDzmyzkwgNCb5XiCF4X-40" style="edgeStyle=none;curved=1;rounded=0;orthogonalLoop=1;jettySize=auto;html=1;exitX=1;exitY=0.5;exitDx=0;exitDy=0;entryX=0;entryY=0.5;entryDx=0;entryDy=0;fontSize=12;startSize=8;endSize=8;" edge="1" parent="1" source="9rDzmyzkwgNCb5XiCF4X-25" target="9rDzmyzkwgNCb5XiCF4X-26">
          <mxGeometry relative="1" as="geometry" />
        </mxCell>
        <mxCell id="9rDzmyzkwgNCb5XiCF4X-25" value="Dispatch" style="ellipse;whiteSpace=wrap;html=1;aspect=fixed;" vertex="1" parent="1">
          <mxGeometry x="557" y="370" width="80" height="80" as="geometry" />
        </mxCell>
        <mxCell id="9rDzmyzkwgNCb5XiCF4X-41" style="edgeStyle=none;curved=1;rounded=0;orthogonalLoop=1;jettySize=auto;html=1;entryX=1;entryY=0.5;entryDx=0;entryDy=0;fontSize=12;startSize=8;endSize=8;" edge="1" parent="1" source="9rDzmyzkwgNCb5XiCF4X-26" target="9rDzmyzkwgNCb5XiCF4X-25">
          <mxGeometry relative="1" as="geometry" />
        </mxCell>
        <mxCell id="9rDzmyzkwgNCb5XiCF4X-26" value="Train" style="ellipse;whiteSpace=wrap;html=1;aspect=fixed;" vertex="1" parent="1">
          <mxGeometry x="682" y="370" width="80" height="80" as="geometry" />
        </mxCell>
        <mxCell id="9rDzmyzkwgNCb5XiCF4X-27" value="Depot" style="ellipse;whiteSpace=wrap;html=1;aspect=fixed;" vertex="1" parent="1">
          <mxGeometry x="547" y="550" width="50" height="50" as="geometry" />
        </mxCell>
        <mxCell id="9rDzmyzkwgNCb5XiCF4X-28" value="Signal Box" style="ellipse;whiteSpace=wrap;html=1;aspect=fixed;" vertex="1" parent="1">
          <mxGeometry x="597" y="550" width="50" height="50" as="geometry" />
        </mxCell>
        <mxCell id="9rDzmyzkwgNCb5XiCF4X-53" style="edgeStyle=none;curved=1;rounded=0;orthogonalLoop=1;jettySize=auto;html=1;entryX=0.5;entryY=1;entryDx=0;entryDy=0;fontSize=12;startSize=8;endSize=8;" edge="1" parent="1" source="9rDzmyzkwgNCb5XiCF4X-29" target="9rDzmyzkwgNCb5XiCF4X-43">
          <mxGeometry relative="1" as="geometry">
            <Array as="points">
              <mxPoint x="350" y="550" />
            </Array>
          </mxGeometry>
        </mxCell>
        <mxCell id="9rDzmyzkwgNCb5XiCF4X-29" value="Emergency Telephone" style="ellipse;whiteSpace=wrap;html=1;aspect=fixed;" vertex="1" parent="1">
          <mxGeometry x="557" y="600" width="80" height="80" as="geometry" />
        </mxCell>
        <mxCell id="9rDzmyzkwgNCb5XiCF4X-31" value="" style="endArrow=classic;startArrow=classic;html=1;rounded=0;fontSize=12;startSize=8;endSize=8;curved=1;exitX=0.5;exitY=1;exitDx=0;exitDy=0;entryX=1;entryY=0.5;entryDx=0;entryDy=0;dashed=1;dashPattern=8 8;" edge="1" parent="1" source="9rDzmyzkwgNCb5XiCF4X-26" target="9rDzmyzkwgNCb5XiCF4X-30">
          <mxGeometry width="50" height="50" relative="1" as="geometry">
            <mxPoint x="397" y="540" as="sourcePoint" />
            <mxPoint x="447" y="490" as="targetPoint" />
          </mxGeometry>
        </mxCell>
        <mxCell id="9rDzmyzkwgNCb5XiCF4X-32" value="&lt;div&gt;Constant&lt;/div&gt;&lt;div&gt;Communication&lt;br&gt;&lt;/div&gt;" style="edgeLabel;html=1;align=center;verticalAlign=middle;resizable=0;points=[];fontSize=12;" vertex="1" connectable="0" parent="9rDzmyzkwgNCb5XiCF4X-31">
          <mxGeometry x="0.5769" relative="1" as="geometry">
            <mxPoint x="39" y="-42" as="offset" />
          </mxGeometry>
        </mxCell>
        <mxCell id="9rDzmyzkwgNCb5XiCF4X-33" value="" style="endArrow=classic;startArrow=classic;html=1;rounded=0;fontSize=12;startSize=8;endSize=8;curved=1;entryX=0.5;entryY=1;entryDx=0;entryDy=0;exitX=0.5;exitY=0;exitDx=0;exitDy=0;" edge="1" parent="1" source="9rDzmyzkwgNCb5XiCF4X-30" target="9rDzmyzkwgNCb5XiCF4X-25">
          <mxGeometry width="50" height="50" relative="1" as="geometry">
            <mxPoint x="517" y="560" as="sourcePoint" />
            <mxPoint x="567" y="510" as="targetPoint" />
          </mxGeometry>
        </mxCell>
        <mxCell id="9rDzmyzkwgNCb5XiCF4X-35" style="edgeStyle=none;curved=1;rounded=0;orthogonalLoop=1;jettySize=auto;html=1;fontSize=12;startSize=8;endSize=8;" edge="1" parent="1" source="9rDzmyzkwgNCb5XiCF4X-34" target="9rDzmyzkwgNCb5XiCF4X-25">
          <mxGeometry relative="1" as="geometry" />
        </mxCell>
        <mxCell id="9rDzmyzkwgNCb5XiCF4X-34" value="Sensor Data" style="ellipse;whiteSpace=wrap;html=1;aspect=fixed;" vertex="1" parent="1">
          <mxGeometry x="457" y="370" width="60" height="60" as="geometry" />
        </mxCell>
        <mxCell id="9rDzmyzkwgNCb5XiCF4X-37" style="edgeStyle=none;curved=1;rounded=0;orthogonalLoop=1;jettySize=auto;html=1;fontSize=12;startSize=8;endSize=8;" edge="1" parent="1" source="9rDzmyzkwgNCb5XiCF4X-30" target="9rDzmyzkwgNCb5XiCF4X-7">
          <mxGeometry relative="1" as="geometry">
            <Array as="points">
              <mxPoint x="516" y="430" />
            </Array>
          </mxGeometry>
        </mxCell>
        <mxCell id="9rDzmyzkwgNCb5XiCF4X-39" style="edgeStyle=none;curved=1;rounded=0;orthogonalLoop=1;jettySize=auto;html=1;entryX=0;entryY=1;entryDx=0;entryDy=0;fontSize=12;startSize=8;endSize=8;" edge="1" parent="1" source="9rDzmyzkwgNCb5XiCF4X-38" target="9rDzmyzkwgNCb5XiCF4X-25">
          <mxGeometry relative="1" as="geometry" />
        </mxCell>
        <mxCell id="9rDzmyzkwgNCb5XiCF4X-38" value="Stations" style="ellipse;whiteSpace=wrap;html=1;aspect=fixed;" vertex="1" parent="1">
          <mxGeometry x="467" y="475" width="60" height="60" as="geometry" />
        </mxCell>
        <mxCell id="9rDzmyzkwgNCb5XiCF4X-44" style="edgeStyle=none;curved=1;rounded=0;orthogonalLoop=1;jettySize=auto;html=1;fontSize=12;startSize=8;endSize=8;" edge="1" parent="1" source="9rDzmyzkwgNCb5XiCF4X-42" target="9rDzmyzkwgNCb5XiCF4X-43">
          <mxGeometry relative="1" as="geometry" />
        </mxCell>
        <mxCell id="9rDzmyzkwgNCb5XiCF4X-47" style="edgeStyle=none;curved=1;rounded=0;orthogonalLoop=1;jettySize=auto;html=1;entryX=0;entryY=0.5;entryDx=0;entryDy=0;fontSize=12;startSize=8;endSize=8;" edge="1" parent="1" source="9rDzmyzkwgNCb5XiCF4X-42" target="9rDzmyzkwgNCb5XiCF4X-46">
          <mxGeometry relative="1" as="geometry" />
        </mxCell>
        <mxCell id="9rDzmyzkwgNCb5XiCF4X-42" value="Management" style="ellipse;whiteSpace=wrap;html=1;aspect=fixed;" vertex="1" parent="1">
          <mxGeometry x="557" y="250" width="80" height="80" as="geometry" />
        </mxCell>
        <mxCell id="9rDzmyzkwgNCb5XiCF4X-45" style="edgeStyle=none;curved=1;rounded=0;orthogonalLoop=1;jettySize=auto;html=1;entryX=0;entryY=0.5;entryDx=0;entryDy=0;fontSize=12;startSize=8;endSize=8;" edge="1" parent="1" source="9rDzmyzkwgNCb5XiCF4X-43" target="9rDzmyzkwgNCb5XiCF4X-42">
          <mxGeometry relative="1" as="geometry" />
        </mxCell>
        <mxCell id="9rDzmyzkwgNCb5XiCF4X-43" value="Substation" style="ellipse;whiteSpace=wrap;html=1;aspect=fixed;" vertex="1" parent="1">
          <mxGeometry x="447" y="250" width="80" height="80" as="geometry" />
        </mxCell>
        <mxCell id="9rDzmyzkwgNCb5XiCF4X-48" style="edgeStyle=none;curved=1;rounded=0;orthogonalLoop=1;jettySize=auto;html=1;entryX=1;entryY=0.5;entryDx=0;entryDy=0;fontSize=12;startSize=8;endSize=8;" edge="1" parent="1" source="9rDzmyzkwgNCb5XiCF4X-46" target="9rDzmyzkwgNCb5XiCF4X-42">
          <mxGeometry relative="1" as="geometry" />
        </mxCell>
        <mxCell id="9rDzmyzkwgNCb5XiCF4X-49" style="edgeStyle=none;curved=1;rounded=0;orthogonalLoop=1;jettySize=auto;html=1;entryX=1;entryY=0;entryDx=0;entryDy=0;fontSize=12;startSize=8;endSize=8;" edge="1" parent="1" source="9rDzmyzkwgNCb5XiCF4X-46" target="9rDzmyzkwgNCb5XiCF4X-25">
          <mxGeometry relative="1" as="geometry" />
        </mxCell>
        <mxCell id="9rDzmyzkwgNCb5XiCF4X-46" value="Comms" style="ellipse;whiteSpace=wrap;html=1;aspect=fixed;" vertex="1" parent="1">
          <mxGeometry x="682" y="260" width="60" height="60" as="geometry" />
        </mxCell>
        <mxCell id="9rDzmyzkwgNCb5XiCF4X-52" style="edgeStyle=none;curved=1;rounded=0;orthogonalLoop=1;jettySize=auto;html=1;entryX=0;entryY=0;entryDx=0;entryDy=0;fontSize=12;startSize=8;endSize=8;" edge="1" parent="1" source="9rDzmyzkwgNCb5XiCF4X-50" target="9rDzmyzkwgNCb5XiCF4X-43">
          <mxGeometry relative="1" as="geometry" />
        </mxCell>
        <mxCell id="9rDzmyzkwgNCb5XiCF4X-50" value="&lt;div&gt;External Stakeholders&lt;/div&gt;&lt;div&gt;(Govt ect)&lt;br&gt;&lt;/div&gt;" style="ellipse;whiteSpace=wrap;html=1;aspect=fixed;" vertex="1" parent="1">
          <mxGeometry x="352" y="120" width="80" height="80" as="geometry" />
        </mxCell>
      </root>
    </mxGraphModel>
  </diagram>
</mxfile>
